<svg width="17" height="17" viewBox="0 0 17 17" fill="none" xmlns="http://www.w3.org/2000/svg">
<path d="M6.84781 12.4185V6.75113H6.17525C5.69356 7.0079 5.22802 7.29389 4.78125 7.6075V8.34594C5.17969 8.07288 5.81081 7.68719 6.11787 7.52038H6.13063V12.4185H6.84781ZM8.11006 11.0319C8.16 11.7119 8.74119 12.5258 9.9195 12.5258C11.2561 12.5258 12.0445 11.3932 12.0445 9.47538C12.0445 7.4205 11.2147 6.64062 9.96944 6.64062C8.98556 6.64062 8.06012 7.35463 8.06012 8.56269C8.06012 9.79519 8.93563 10.4433 9.84088 10.4433C10.6335 10.4433 11.1478 10.0438 11.3103 9.60394H11.339C11.3347 11.0022 10.8492 11.9032 9.95244 11.9032C9.24694 11.9032 8.88144 11.4251 8.83681 11.0319H8.11006ZM11.2476 8.57012C11.2476 9.30962 10.6537 9.82388 9.98963 9.82388C9.35106 9.82388 8.77413 9.41694 8.77413 8.54887C8.77413 7.67444 9.3925 7.26325 10.0151 7.26325C10.6877 7.26325 11.2476 7.68612 11.2476 8.57012Z" fill="#7B8D8B"/>
<path d="M3.71875 0C3.85965 0 3.99477 0.0559708 4.0944 0.1556C4.19403 0.255228 4.25 0.390354 4.25 0.53125V1.0625H12.75V0.53125C12.75 0.390354 12.806 0.255228 12.9056 0.1556C13.0052 0.0559708 13.1404 0 13.2812 0C13.4221 0 13.5573 0.0559708 13.6569 0.1556C13.7565 0.255228 13.8125 0.390354 13.8125 0.53125V1.0625H14.875C15.4386 1.0625 15.9791 1.28638 16.3776 1.6849C16.7761 2.08341 17 2.62391 17 3.1875V14.875C17 15.4386 16.7761 15.9791 16.3776 16.3776C15.9791 16.7761 15.4386 17 14.875 17H2.125C1.56141 17 1.02091 16.7761 0.622398 16.3776C0.223883 15.9791 0 15.4386 0 14.875V3.1875C0 2.62391 0.223883 2.08341 0.622398 1.6849C1.02091 1.28638 1.56141 1.0625 2.125 1.0625H3.1875V0.53125C3.1875 0.390354 3.24347 0.255228 3.3431 0.1556C3.44273 0.0559708 3.57785 0 3.71875 0V0ZM1.0625 4.25V14.875C1.0625 15.1568 1.17444 15.427 1.3737 15.6263C1.57296 15.8256 1.84321 15.9375 2.125 15.9375H14.875C15.1568 15.9375 15.427 15.8256 15.6263 15.6263C15.8256 15.427 15.9375 15.1568 15.9375 14.875V4.25H1.0625Z" fill="#7B8D8B"/>
</svg>
